<?xml version="1.0" encoding="utf-8"?>
<!-- Generator: Adobe Illustrator 27.5.0, SVG Export Plug-In . SVG Version: 6.00 Build 0)  -->
<svg version="1.1" id="Layer_1" xmlns="http://www.w3.org/2000/svg" xmlns:xlink="http://www.w3.org/1999/xlink" x="0px" y="0px"
	 viewBox="0 0 700 700" style="enable-background:new 0 0 700 700;" xml:space="preserve">
<style type="text/css">
	.st0{fill:#202121;}
</style>
<g>
	<polygon class="st0" points="247.1,330 247.1,295.4 256.1,295.4 256.1,291.3 221.3,291.3 221.3,295.4 230.3,295.4 230.3,330 	"/>
	<polygon class="st0" points="324.4,291.3 324.4,330 341.3,330 341.3,311.8 349.4,311.8 349.4,330 366.3,330 366.3,291.3 
		349.4,291.3 349.4,307.7 341.3,307.7 341.3,291.3 	"/>
	<path class="st0" d="M478.7,295.4v-4.1h-25.6c-0.3,0-1,0-1.9,0.1c-0.9,0.1-1.8,0.2-2.8,0.3c-1,0.1-1.9,0.3-2.6,0.6
		c-0.7,0.3-1.1,0.6-1.1,1v34.6c0,0.4,0.4,0.8,1.1,1c0.7,0.3,1.6,0.5,2.6,0.6c1,0.1,2,0.2,2.8,0.3c0.9,0.1,1.5,0.1,1.9,0.1h25.6v-4.1
		h-17.1v-13.4h16.6v-4.1h-16.6v-13.1H478.7z"/>
	<path class="st0" d="M272.9,351v-6.8h-38.7c-0.6,0-1.6,0-3.1,0.1c-1.5,0.1-3.1,0.3-4.7,0.5c-1.7,0.2-3.1,0.6-4.4,1
		c-1.2,0.5-1.8,1-1.8,1.7v61h28.1v-28.2h23.6v-6.8h-23.6V351H272.9z"/>
	<path class="st0" d="M277.7,344.3v61c0,0.7,0.6,1.3,1.8,1.7c1.2,0.5,2.7,0.8,4.4,1c1.7,0.2,3.3,0.4,4.7,0.5
		c1.5,0.1,2.5,0.1,3.1,0.1h38.7v-6.8h-24.7v-57.6H277.7z"/>
	<path class="st0" d="M451.8,344.3v26.5l-32.1,6.3c-0.4,0.1-1.1,0.2-2.1,0.4c-1,0.2-2.1,0.4-3.3,0.7c-1.2,0.3-2.1,0.6-3,1
		c-0.8,0.4-1.2,0.8-1.2,1.4v28.1h28.1v-26.5l32.1-6.3c0.4-0.1,1.1-0.2,2.1-0.4c1-0.2,2.1-0.4,3.3-0.7c1.2-0.3,2.1-0.6,3-1
		s1.2-0.8,1.2-1.4v-28.1H451.8z"/>
	<path class="st0" d="M477.1,382.2c-1.2-0.5-2.7-0.8-4.4-1c-1.7-0.2-3.3-0.4-4.7-0.5c-1.5-0.1-2.5-0.1-3.1-0.1h-14v28.1h28.1V384
		C478.9,383.3,478.3,382.7,477.1,382.2z"/>
	<path class="st0" d="M422.1,372.2c1.5,0.1,2.5,0.1,3.1,0.1h14v-28.1h-28.1V369c0,0.7,0.6,1.3,1.8,1.7c1.2,0.5,2.7,0.8,4.4,1
		C419,371.9,420.6,372.1,422.1,372.2z"/>
	<path class="st0" d="M407.8,372.8c-2.2-0.8-3.6-3-3.6-5.4l0.1-12.8v-10.4h-28.1c-0.1,7.9-0.1,15.8-0.1,23.8c0,2.7,1.9,5.2,4.5,5.8
		c2.3,0.5,4.1,0.5,4.1,0.5c-2.1,0.2-3.8,0.7-5.2,1.3c-2.1,1-3.5,3.1-3.5,5.4v20.9h-12.6v-57.6h-28.1v61c0,0.7,0.6,1.3,1.8,1.7
		c1.2,0.5,2.7,0.8,4.4,1c1.7,0.2,3.3,0.4,4.7,0.5c1.5,0.1,2.5,0.1,3.1,0.1h40.7c0.5,0,1.5,0,3-0.1c1.5-0.1,3.1-0.3,4.8-0.5
		c1.7-0.2,3.2-0.6,4.4-1c1.2-0.5,1.8-1,1.8-1.7c0.1-3.2,0.2-6.5,0.1-9.8c-0.1-3.3-0.1-6.6-0.1-9.8v-3.4c0-1.8,0.8-3.5,2.2-4.5
		c2.3-1.7,5.7-3.1,11-3.5C417.3,374.3,412.2,374.3,407.8,372.8z"/>
</g>
</svg>
