<?xml version="1.0" encoding="utf-8"?>
<!-- Generator: Adobe Illustrator 27.5.0, SVG Export Plug-In . SVG Version: 6.00 Build 0)  -->
<svg version="1.1" id="Layer_1" xmlns="http://www.w3.org/2000/svg" xmlns:xlink="http://www.w3.org/1999/xlink" x="0px" y="0px"
	 viewBox="0 0 700 700" style="enable-background:new 0 0 700 700;" xml:space="preserve">
<style type="text/css">
	.st0{fill:#202121;}
</style>
<g>
	<path class="st0" d="M522,356.9c0-0.6-0.5-1.2-1.6-1.6c-1.1-0.4-2.4-0.7-3.9-0.9c-1.5-0.2-2.9-0.3-4.2-0.4
		c-1.3-0.1-2.2-0.1-2.8-0.1H497v25h25V356.9z"/>
	<g>
		<polygon class="st0" points="177.1,324.5 184.6,324.5 184.6,353.3 198.6,353.3 198.6,324.5 206.1,324.5 206.1,321.1 177.1,321.1 
					"/>
		<polygon class="st0" points="229.3,334.8 222.6,334.8 222.6,321.1 208.6,321.1 208.6,353.3 222.6,353.3 222.6,338.1 229.3,338.1 
			229.3,353.3 243.3,353.3 243.3,321.1 229.3,321.1 		"/>
		<path class="st0" d="M274.5,349.9h-14.3v-11.1H274v-3.4h-13.8v-10.9h14.3v-3.4h-21.3c-0.3,0-0.8,0-1.5,0.1c-0.7,0-1.5,0.1-2.4,0.2
			c-0.8,0.1-1.6,0.3-2.2,0.5c-0.6,0.2-0.9,0.5-0.9,0.9v28.7c0,0.4,0.3,0.6,0.9,0.9c0.6,0.2,1.3,0.4,2.2,0.5c0.8,0.1,1.6,0.2,2.4,0.2
			c0.7,0,1.3,0.1,1.5,0.1h21.3V349.9z"/>
		<path class="st0" d="M316.5,353.8h21.1v-6h-21.1v-20.2h22v-6H304c-0.5,0-1.4,0-2.8,0.1c-1.3,0.1-2.7,0.2-4.2,0.4
			c-1.5,0.2-2.8,0.5-3.9,0.9c-1.1,0.4-1.6,0.9-1.6,1.6v54.4h25V353.8z"/>
		<path class="st0" d="M344.4,377.4c1.1,0.4,2.4,0.7,3.9,0.9c1.5,0.2,2.9,0.3,4.2,0.4c1.3,0.1,2.2,0.1,2.8,0.1h34.5v-6h-22v-51.3
			h-25v54.4C342.8,376.5,343.3,377,344.4,377.4z"/>
		<path class="st0" d="M467.4,351.1c-0.9,0.2-1.9,0.4-2.9,0.6c-1,0.3-1.9,0.6-2.6,0.9s-1.1,0.7-1.1,1.2v25h25v-23.6l28.6-5.6
			c0.3-0.1,1-0.2,1.9-0.3c0.9-0.2,1.9-0.4,2.9-0.6c1-0.3,1.9-0.6,2.6-0.9c0.7-0.3,1.1-0.7,1.1-1.2v-25h-25v23.6l-28.6,5.6
			C468.9,350.8,468.3,350.9,467.4,351.1z"/>
		<path class="st0" d="M463.2,345c1.1,0.4,2.4,0.7,3.9,0.9c1.5,0.2,2.9,0.3,4.2,0.4c1.3,0.1,2.2,0.1,2.8,0.1h12.5v-25h-25v22
			C461.6,344.1,462.1,344.6,463.2,345z"/>
		<path class="st0" d="M395.8,377.4c1.1,0.4,2.4,0.7,3.9,0.9c1.5,0.2,2.9,0.3,4.2,0.4c1.3,0.1,2.2,0.1,2.8,0.1h36.2
			c0.5,0,1.4,0,2.7-0.1c1.3-0.1,2.7-0.2,4.3-0.4c1.5-0.2,2.8-0.5,3.9-0.9c1.1-0.4,1.6-0.9,1.6-1.6c0.1-2.9,0.1-5.8,0.1-8.7
			c-0.1-2.9-0.1-5.8-0.1-8.7v-3c0-1.6,0.7-3.1,1.9-4c2-1.5,5.1-2.8,9.8-3.1c0,0-4.6,0-8.4-1.4c-2-0.7-3.2-2.7-3.2-4.8l0.1-11.4v-9.2
			h-25c0,7-0.1,14.1-0.1,21.2c0,2.4,1.7,4.6,4,5.2c2,0.4,3.7,0.4,3.7,0.4c-1.9,0.2-3.4,0.6-4.6,1.2c-1.9,0.9-3.1,2.7-3.1,4.8v18.6
			h-11.2v-51.3h-25v54.4C394.1,376.5,394.7,377,395.8,377.4z"/>
	</g>
</g>
</svg>
