<?xml version="1.0" encoding="utf-8"?>
<!-- Generator: Adobe Illustrator 27.4.0, SVG Export Plug-In . SVG Version: 6.00 Build 0)  -->
<svg version="1.1" id="Layer_1" xmlns="http://www.w3.org/2000/svg" xmlns:xlink="http://www.w3.org/1999/xlink" x="0px" y="0px"
	 viewBox="0 0 602.81 175.95" style="enable-background:new 0 0 602.81 175.95;" xml:space="preserve">
<g>
	<path d="M171.88,15.79c0.44-2.05,1.58-4.43-0.91-7.98c-1.45-2.07-7.8-8.16-10.78-7.8c-5.88,0.73-21.63,11.63-21.63,11.63
		c-6.27,3.89-12.23,8.24-18.03,12.8c-6.97,5.52-13.68,11.35-20.23,17.38C81.99,58.66,64.43,76.95,47.67,96.66
		c-5.03,0.16-9.9,0.34-14.66,0.57c-1.4,0.08-2.36,0.1-2.9,0.1c-6.92,0-12.43,1.35-16.55,3.99c-4.12,2.67-6.19,5.72-6.19,9.25
		c0,3.5,1.04,5.23,3.11,5.23c0.7,0,2.31-0.23,4.79-0.67c2.51-0.47,8.42-0.7,17.74-0.7C13.14,139.66,1.97,158.7,0.39,166.24
		c-0.98,4.58,7.78,9.27,11.4,9.66c5.89,0.63,8.08-4.82,10.44-8.83c10.7-18.08,21.97-35.41,35.12-51.94
		c13.7,0.39,29.58,0.91,47.69,1.61c-5.49,11.58-10.98,23.13-16.45,34.74c-2.54,5.36-4.71,9.95-7.2,15.36
		c-1.97,4.25,3.32,6.06,9.35,6.14c6.63,0.1,10.02-1.17,11.92-3.83c4.12-5.85,6.14-9.77,9.48-15.85
		c2.88-5.28,14.17-29.66,33.88-73.15C165.71,36.64,171.26,18.74,171.88,15.79z M72.49,96.66c23.24-27.09,48.91-51.31,77.01-72.63
		c-9.79,20.1-21.68,44.86-35.69,74.34C99.89,97.54,86.11,96.95,72.49,96.66z"/>
	<path d="M218.68,94.64c0-2.75-0.93-4.97-2.8-6.71c-1.84-1.71-4.22-2.59-7.1-2.59c-11.68,0-25.8,9.43-42.4,28.26l4.43-6.63
		c6.11-9.14,9.17-15.36,9.17-18.68c0-2.1-0.83-3.16-2.51-3.16c-7.54,0-12.87,2.02-16.03,6.01c-1.68,2.12-3.86,5.49-6.53,10.13
		c-1.27,2.25-5.15,8.78-11.6,19.61c-6.48,10.83-11.24,18.91-14.3,24.25c-3.06,5.36-5.34,9.22-6.84,11.6c-1.53,2.38-3,5.18-3.73,6.4
		c-1.04,1.71-1.92,4.12-0.65,5.96c1.27,1.86,3.68,2.15,5.75,2.28c2.38,0.13,4.79,0.1,7.1-0.52c1.14-0.31,2.02-0.7,2.82-1.55
		c0.73-0.8,1.3-1.71,1.94-2.56c7.54-10.13,14.17-18.7,20.59-25.75c6.45-7.07,14.25-15.08,23.42-23.99
		c9.17-8.94,14.92-13.52,17.25-13.73l0.21,0.21c-5.21,6.14-7.8,11.6-7.8,16.47c0,2.18,0.6,4.07,1.84,5.67
		c1.22,1.63,2.95,2.43,5.15,2.43c2.23,0,4.2-1.11,5.96-3.37c3.32-4.43,6.92-9.87,10.8-16.29
		C216.74,101.95,218.68,97.36,218.68,94.64z"/>
	<path d="M596,136.94c-10.44,7.41-19.97,18-32.9,20.88c-6.42,1.42-20.83,2.49-20.83-7.38c0-5.08,8.78-9.53,12.43-11.63
		c6.45-3.73,11.79-6.48,17.8-9.74c2.12-1.17,5.62-2.46,5.62-4.82c0-0.96-0.52-2.25-1.58-3.91c-1.5-2.36-3.13-3.68-6.06-3.5
		c-2.36,0.16-4.61,1.06-6.81,1.81c-0.83,0.28-10.13,3.32-10.13,0.88c0-1.68,2.25-4.25,6.76-7.69s8.29-6.04,11.4-7.8
		c3.08-1.76,5.91-3.06,8.42-3.91c-0.28,1.14-0.41,2.31-0.41,3.5c0,1.19,0.26,2.15,0.73,2.9c0.49,0.73,1.53,1.09,3.08,1.09
		c4.77,0,9.04-1.74,12.8-5.26c3.11-2.9,6.29-7.98,5.49-12.2c-0.28-1.55-1.09-2.98-2.64-4.14c-4.43-3.37-10.78-2.49-15.88-1.61
		c-8.83,1.5-17.25,5.08-25.07,9.3c-5.57,2.95-10.26,6.73-14.09,11.35c-5.65,6.79-10.15,21.84,0.6,26.63
		c-2.74,1.11-5.27,2.42-7.52,3.91c-0.01,0.01-0.02,0.01-0.03,0.02c-0.08,0.05-0.14,0.1-0.22,0.15c-0.21,0.14-0.43,0.28-0.64,0.43
		c-1.51,1.04-2.7,2.03-3.86,3.06c-1.9,1.69-3.74,3.46-5.58,5.22c-3.26,3.11-6.52,6.22-10.14,8.91c-2.75,2.05-5.96,3.86-9.48,3.86
		c-6.66,0-1.92-13.18-0.73-16.03c3.08-7.36,6.63-14.51,10.23-21.6c9.07-17.93,21.58-39.87,37.53-65.82
		c2.75-4.48,6.58-10.7,11.5-18.6c4.92-7.9,8.06-13.03,9.43-15.39c1.37-2.36,2.05-3.99,2.05-4.87c0-0.88-0.39-1.74-1.14-2.56
		c-0.78-0.85-1.84-1.27-3.19-1.27c-6.24,0-10.85,1.92-13.81,5.8c-5.54,6.4-16.94,24.12-34.17,53.13
		c-5.47,9.71-9.14,15.21-11.19,18.44c-3.03-2.75-5.75-3.13-8-3.13c-7.1,0-14.87,2.23-23.29,6.68c-8.44,4.46-16.11,10.02-23.05,16.66
		c-6.92,6.66-12.69,14.12-17.33,22.41c-0.12,0.2-0.21,0.4-0.31,0.59l-0.01,0.01c-6.24,10.08-12.45,25.16-26.57,25.16
		c-3.24,0-4.87-1.19-4.87-3.6c0-1.89,0.73-4.25,2.12-7.05c0.7-1.35,1.32-2.49,1.84-3.45c0.52-0.93,1.27-2.12,2.2-3.57
		c0.96-1.45,1.53-2.38,1.76-2.8c16.71-28.83,25.1-44.04,25.1-45.67c0-1.89-1.42-3.99-2.64-5.36c-1.76-1.97-3.76-2.95-5.96-2.95
		c-2.23,0-5.41,1.53-9.61,4.58c-4.17,3.06-7.72,6.14-10.65,9.27c-1.3,1.4-3,2.93-3.86,4.64c-0.96,1.89,0.36,3.21,1.66,4.58
		c1.42,1.55,2.15,2.59,2.15,3.13c0,1.37-1.68,3.39-2.33,4.53c-1.11,1.89-2.31,3.76-3.47,5.62c-3.86,6.27-7.72,13.08-11.6,20.46
		c-0.23,0.47-0.49,0.96-0.73,1.42c-3.34,6.63-7.07,14.3-3.34,21.5c3.5,6.71,11.14,10.93,18.62,10.93c7.99,0,17.76-3.6,24.9-10.78
		c0.03,0.1,0.06,0.21,0.1,0.3c0.47,1.32,1.04,2.49,1.74,3.5c2.15,3.16,5.47,4.74,9.97,4.74c8.08,0,17.61-4.79,28.57-14.35
		c5.91-5.18,11.71-11.48,17.41-18.86c-4.22,8.99-6.35,16.14-6.35,21.68c0,8.94,5.28,13.52,15.83,13.52c6.19,0,12.74-2.82,19.66-8.47
		c1.04-0.87,2.03-1.7,2.97-2.52c0.17,0.35,0.35,0.69,0.56,1.02c1.79,2.98,4.87,5.26,9.4,7.3c4.27,1.97,10.02,2.95,17.17,2.95
		c13.44,0,27.66-6.11,42.71-18.34c3.83-3.13,6.86-8.19,6.86-13.26C603.13,138.03,600.23,133.94,596,136.94z M485.66,126.43
		c-16.66,18.86-27.09,28.26-31.32,28.26c-0.98,0-1.48-1.17-1.48-3.47c0-2.33,2.18-7.41,6.53-15.23
		c4.38-7.85,10.91-15.36,19.61-22.54c8.73-7.15,18.16-11.86,28.26-14.12C501.15,108.11,493.94,117.16,485.66,126.43z"/>
	<path d="M312.29,75.66c6.6,2.02,14.26-2.66,17.42-10.78c3.16-8.11,0.37-16.33-6.23-18.35c-6.6-2.02-14.52,2.92-17.68,11.04
		C302.64,65.69,305.69,73.64,312.29,75.66z"/>
	<path d="M382.71,120.96c-1.55-1.14-3.06-2.02-4.53-2.64c-1.48-0.62-3.47-1.32-6.01-2.05c-2.54-0.75-6.61-1.76-12.17-3.06
		c-5.6-1.32-9.56-2.41-11.92-3.29c-2.36-0.88-3.55-1.92-3.55-3.11c0-2.51,3.26-5.05,9.77-7.59c5.36-2.07,11.06-3.19,16.79-3.6
		c2.56-0.18,5.52-0.67,7.87,0.6c1.61,0.88,2.95,2.46,3.34,4.3c0.18,0.91-0.08,2.05,0.03,3.03c0.23,2.07,2.51,2.23,4.17,2.23
		c2.82,0,5.13-1.5,6.92-4.48c1.79-3,2.69-6.24,2.69-9.77s-1.61-6.55-4.79-9.12c-3.21-2.56-9.01-3.86-17.41-3.86
		s-18.26,2.8-29.58,8.34c-5.26,2.54-9.69,5.8-13.29,9.82c-3.57,3.99-5.36,8.24-5.36,12.74c0,2.18,0.88,4.61,2.62,7.28
		c1.76,2.67,4.92,5.05,9.51,7.18c4.56,2.1,14.12,4.61,28.68,7.49c1.53,0.28,5.18,0.78,4.74,3.06c-0.34,1.74-2.23,3.08-3.47,4.22
		c-2.38,2.18-5.39,4.46-9.01,6.84c-3.63,2.38-7.95,4.56-13.03,6.5c-6.81,2.59-14.07,4.07-21.34,3.83c-1.14-0.05-2.43-0.13-3.7-0.34
		h-0.05c-0.05-0.03-0.16-0.05-0.28-0.08c-0.69-0.13-1.36-0.31-2-0.54c-1.14-0.5-4.2-2.86,2.01-12.79l0,0c1.27-2,1.36-4.06-1.91-5.37
		c-3.93-1.57-7.21-0.96-9.43-0.05c-0.1,0.04-0.2,0.08-0.3,0.12c-0.1,0.04-0.19,0.09-0.28,0.13c-0.09,0.04-0.19,0.09-0.27,0.13
		c-0.03,0.02-0.07,0.04-0.1,0.05c-0.11,0.06-0.21,0.11-0.31,0.16c-0.86,0.46-1.67,1.02-2.2,1.52c-3.13,2.9-4.58,4.92-7.3,7.56
		c-2.51,2.67-5.52,5.1-9.01,7.33c-3.47,2.2-6.84,3.32-10.05,3.32c-3.24,0-4.87-1.19-4.87-3.6c0-1.89,0.7-4.25,2.12-7.05
		c0.7-1.35,1.32-2.49,1.84-3.45c0.52-0.93,1.27-2.12,2.2-3.57c0.96-1.45,1.53-2.38,1.76-2.8c16.71-28.83,25.07-44.04,25.07-45.67
		c0-1.61-0.85-3.39-2.62-5.36c-1.76-1.97-3.76-2.95-5.96-2.95c-2.23,0-5.41,1.53-9.61,4.58c-4.17,3.06-7.72,6.16-10.65,9.27
		c-2.93,3.13-4.38,5.08-4.38,5.8c0,0.75,0.73,1.89,2.18,3.42c1.42,1.55,2.15,2.59,2.15,3.13c0,0.52-1.94,3.91-5.8,10.15
		c-4.4,6.71-9.4,13.18-15.15,18.81c-4.69,4.56-9.3,8.42-14.66,12.12c-4.79,3.32-9.3,6.09-15.39,6.09c-6.97,0-4.66-9.82-3.21-13.7
		c3.89-10.39,9.07-19.69,14.43-29.37c10.21-18.44,18.18-32.04,23.88-40.75c1.68-0.08,10.67-0.91,26.99-2.54
		c3.29-0.31,9.83-1.89,8.21-6.68c-0.27-0.79-0.62-1.55-1.09-2.25c-0.73-1.09-1.66-2.05-2.54-3c-0.88-0.93-1.89-1.74-3-2.38
		c-1.66-0.96-3.24-0.96-5.13-0.96c-2.28,0-6.17,0.21-11.63,0.62c0.13-0.26,1.19-1.97,3.21-5.1c1.99-3.13,3.73-5.93,5.21-8.39
		c1.48-2.46,2.23-3.96,2.23-4.53c0-3.03-4.79-3.47-6.99-3.57c-1.84-0.1-3.65-0.26-5.47,0.26c-1.14,0.31-1.97,1.09-2.77,1.94
		c-0.83,0.91-1.63,1.84-2.43,2.75c-2.23,2.54-6.27,8.24-12.17,17.1l-9.51,0.41c-0.98,0.08-2.41,0.13-4.27,0.21
		c-1.84,0.08-3.55,0.16-5.05,0.21c-1.5,0.08-3.08,0.16-4.69,0.26c-2.72,0.18-5.05,1.42-7.15,3.11c-1.97,1.58-3.65,3.47-5.34,5.36
		c-1.37,1.55-3.42,3.57-3.34,5.85c0.05,1.86,1.53,3.21,3.32,3.16c12.2-0.28,12.77-0.41,20.31-0.7c0-0.03,4.02-0.16,4.02-0.16
		c-7.59,11.94-15.18,24.74-22.77,38.36c-4.64,8.37-8.5,16.27-11.55,23.68c-3.78,9.17-8.16,22.72-0.75,31.32
		c2.59,3,6.14,4.97,10,5.83c14.32,3.08,28.7-7.1,36.91-16.71c-0.03,0.23-0.03,0.47-0.03,0.7c0,3.89,1.99,7.67,5.98,11.4
		c4.02,3.73,8.81,5.6,14.35,5.6c5.54,0,12.54-1.5,19.61-6.5c3.11-2.2,6.48-4.66,9.43-7.49c0.86-0.83,1.69-1.69,2.46-2.58
		c-0.7,1.77-1.12,3.65-1.16,5.55c0,0.23,0,0.44,0.03,0.65c0.47,19.56,39.55,5.6,47.27,2.36c5.91-2.46,11.42-5.28,16.55-8.52
		c5.13-3.24,9.4-7.12,12.82-11.66s5.1-9.09,5.1-13.7C387.66,126.74,386.03,123.27,382.71,120.96z"/>
	<path d="M423.1,73.01c4.44-0.67,9.56-1.54,14.37-1.68c3.7-0.11,8.01,0.3,11.33,0.62c7.27,0.7,10.77-14.68,1.44-13.96
		c-2.23,0.17-9.15,0.75-12.01,2.19c2.28-1.13,6.12-3.81,7.18-4.76c2.35-2.13,3.21-4.79,2.53-7.89c-2.92-13.25-19.43,4.35-22.44,8.75
		c-2.21,3.23-4.5,7.19-5.65,10.99C418.95,70.22,419.47,73.55,423.1,73.01z"/>
</g>
</svg>
