<?xml version="1.0" encoding="utf-8"?>
<!-- Generator: Adobe Illustrator 27.4.0, SVG Export Plug-In . SVG Version: 6.00 Build 0)  -->
<svg version="1.1" id="Layer_1" xmlns="http://www.w3.org/2000/svg" xmlns:xlink="http://www.w3.org/1999/xlink" x="0px" y="0px"
	 viewBox="0 0 222.4 82.63" style="enable-background:new 0 0 222.4 82.63;" xml:space="preserve">
<style type="text/css">
	.st0{fill:#212121;}
</style>
<g>
	<g>
		<path class="st0" d="M69.14,24.46h17.73v12.34h6.53V20.54h-5.55c2.72-1.68,4.25-4.33,4.55-7.88c0.02-0.16,0.03-0.34,0.04-0.54
			c0.01-0.04,0.01-0.08,0.01-0.12l0-0.12h0c0-0.11,0.01-0.22,0.01-0.33c0-0.28-0.01-0.57-0.04-0.87c-0.01-0.09-0.01-0.17-0.02-0.25
			c-0.34-4.06-2.28-6.94-5.79-8.54L86.59,1.9c-2.21-1.01-4.48-1.22-5.64-1.26c-0.55-0.02-0.9,0-0.9,0H62.72v36.16h6.42V24.46z
			 M69.14,6.31h10.23c0,0,0.19-0.01,0.5,0h0.08v0c5.59,0.03,6.3,3.87,6.35,5.53v1.23c-0.05,1.65-0.76,5.49-6.35,5.53v-0.01l-0.08,0
			c-0.1,0-0.19,0-0.26,0H69.14V6.31z"/>
		<polygon class="st0" points="108.18,36.97 114.99,36.97 114.99,7.19 127.36,7.19 127.36,0.38 95.81,0.38 95.81,7.19 108.18,7.19 
					"/>
		<polygon class="st0" points="198.4,30.16 176.67,30.16 176.67,22.08 197.27,22.08 197.27,15.27 176.67,15.27 176.67,7.19 
			198.4,7.19 198.4,0.38 169.86,0.38 169.86,36.97 198.4,36.97 		"/>
		<path class="st0" d="M48.36,24.24l3.75,12.73h6.98L48.36,0.54l-0.04-0.13H34.84L24.08,36.97h6.98l3.74-12.73H48.36z M46.53,18.02
			h-9.9l4.95-16.81L46.53,18.02z"/>
		<path class="st0" d="M145.62,0h-8.84v5.81h-6.45V31.4h6.45v5.84h8.84c9.26,0,16.04-4.17,18.61-11.45
			c0.78-2.22,1.17-4.63,1.17-7.17c0-2.55-0.38-4.88-1.17-7.12C161.65,4.19,154.87,0,145.62,0z M157.92,13.57
			c0.57,1.51,0.86,3.2,0.86,5.02c0,1.76-0.26,3.39-0.82,4.99c-1.65,4.67-5.79,7.46-11.06,7.46h-9.77V6.17h9.77
			C152.17,6.17,156.29,8.93,157.92,13.57z"/>
		<rect x="33.31" y="45.01" class="st0" width="6.81" height="36.59"/>
		<polygon class="st0" points="6.46,51.46 0,51.46 0,81.6 6.81,81.6 6.81,66.78 27.11,66.78 27.11,59.97 6.81,59.97 6.81,51.82 
			28.62,51.82 28.62,45.01 6.46,45.01 		"/>
		<polygon class="st0" points="222.4,51.82 222.4,45.01 193.86,45.01 193.86,81.6 222.4,81.6 222.4,74.79 200.68,74.79 
			200.68,66.71 221.27,66.71 221.27,59.9 200.68,59.9 200.68,51.82 		"/>
		<path class="st0" d="M104.34,45.04H90.86L80.1,81.6h6.97l3.75-12.73h13.56l3.75,12.73h6.98l-10.73-36.43L104.34,45.04z
			 M102.55,62.64h-9.9l4.95-16.81L102.55,62.64z"/>
		<polygon class="st0" points="69.61,70.83 52.22,45.7 51.74,45.01 44.91,45.01 44.91,81.6 51.72,81.6 51.72,56.08 69.3,81.52 
			69.36,81.6 76.43,81.6 76.43,45.01 69.61,45.01 		"/>
		<polygon class="st0" points="143.2,70.83 125.8,45.7 125.32,45.01 118.49,45.01 118.49,81.6 125.3,81.6 125.3,56.08 142.89,81.52 
			142.94,81.6 150.01,81.6 150.01,45.01 143.2,45.01 		"/>
	</g>
	<path class="st0" d="M182.83,68.49l-0.04,0.18c-0.09,0.37-0.19,0.74-0.3,1.08c-0.02,0.06-0.04,0.11-0.07,0.18
		c-0.19,0.54-0.42,1.04-0.69,1.51c-1.66,2.92-4.76,4.4-9.22,4.4c-7.16,0-11.1-4.44-11.1-12.5c0-8.03,3.94-12.45,11.1-12.45
		c3.69,0,6.46,1.01,8.23,3c0.7,0.79,1.26,1.73,1.65,2.82l0.06,0.18l6.32-2.51l-0.07-0.17c-0.96-2.4-2.38-4.43-4.21-6.03
		c-3.05-2.67-7.17-4.08-11.94-4.08c-5.41,0-9.99,1.93-13.24,5.6c-3.05,3.44-4.74,8.29-4.74,13.66c0,11.55,7.23,19.31,17.98,19.31
		c4.76,0,8.9-1.41,11.94-4.09c1.85-1.62,3.27-3.68,4.23-6.11c0.25-0.62,0.48-1.3,0.67-2.02l0.05-0.17L182.83,68.49z"/>
</g>
</svg>
