<?xml version="1.0" encoding="utf-8"?>
<!-- Generator: Adobe Illustrator 27.5.0, SVG Export Plug-In . SVG Version: 6.00 Build 0)  -->
<svg version="1.1" id="Layer_1" xmlns="http://www.w3.org/2000/svg" xmlns:xlink="http://www.w3.org/1999/xlink" x="0px" y="0px"
	 viewBox="0 0 700 700" style="enable-background:new 0 0 700 700;" xml:space="preserve">
<style type="text/css">
	.st0{fill:#1A1B1E;}
	.st1{fill:#F00046;}
</style>
<g>
	<polygon class="st0" points="365.7,320.9 361.7,320.9 361.7,383.6 365.7,383.6 379.7,383.6 409.1,383.6 409.1,368.1 379.7,368.1 
		379.7,358.8 403.5,358.8 403.5,344.8 379.7,344.8 379.7,336.4 409.1,336.4 409.1,320.9 379.7,320.9 	"/>
	<path class="st1" d="M255.8,316.3c-5.3,0-9.9,4.6-9.9,10.1c0,5.6,4.7,9.9,9.9,9.9c5.5,0,10.1-4.3,10.1-9.9
		C265.8,320.9,261.3,316.3,255.8,316.3z"/>
	<rect x="334.7" y="320.9" class="st0" width="18" height="62.8"/>
	<rect x="246.9" y="342" class="st0" width="18" height="41.7"/>
	<polygon class="st0" points="204.7,320 186.7,320 186.7,383.6 193.6,383.6 193.6,383.7 237.9,383.7 237.9,367.7 204.7,367.7 	"/>
	<polygon class="st0" points="292,364.6 292,320.9 274,320.9 274,383.6 283,383.6 292,383.6 300.6,383.6 330.4,320.9 312.7,320.9 	
		"/>
	<polygon class="st0" points="495.6,320.9 474.9,364.6 474.9,320.9 474.5,320.9 456.9,320.9 456.8,320.9 436.1,364.6 436.1,320.9 
		418.1,320.9 418.1,383.6 427.1,383.6 436.1,383.6 444.8,383.6 456.9,358.1 456.9,383.6 465.9,383.6 474.9,383.6 483.5,383.6 
		513.3,320.9 	"/>
</g>
</svg>
