<svg width="5377" height="480" viewBox="0 0 5377 480" fill="none" xmlns="http://www.w3.org/2000/svg">
<g clip-path="url(#clip0_3823_134750)">
<path d="M5236.16 298.16C5228.74 265.81 5208.18 237.53 5178.27 218.56C5147.66 199.15 5107.24 195.2 5074.75 192.02L5064.09 190.98C5028.49 187.52 4984.19 183.22 4974.13 179.69L4973.94 179.64C4958.75 175.77 4947.13 165.66 4942.06 151.9C4936.92 137.95 4939.29 122.44 4948.55 109.34C4948.61 109.26 4954.69 100.94 4969.02 92.77C4982.49 85.1 5006.21 75.95 5042.7 75.95C5043.29 75.95 5043.88 75.95 5044.49 75.95C5091.09 75.95 5126.09 93.68 5148.52 128.63L5149.79 130.61L5152.61 129.57C5152.93 129.46 5153.42 129.29 5154.19 129.01L5227.99 102.37L5225.97 99.27C5206.54 69.46 5182.47 46.03 5154.44 29.63C5121.38 10.29 5082.34 0.48999 5038.4 0.48999C5030.97 0.48999 5023.28 0.76999 5015.55 1.32999C5001.07 2.36999 4987.06 4.32999 4973.9 7.15999L4973.55 7.22999C4954.95 11.24 4937.45 17.11 4921.56 24.68L4921.35 24.78C4897.78 36.35 4879.9 51.64 4868.2 70.25C4853.21 94.09 4848.24 123.58 4853.4 157.9C4857.79 187.07 4874.84 213.23 4900.17 229.66C4924.16 245.22 4952.6 251.66 4982.06 257.4C5004.97 261.87 5028.42 264.93 5051.09 267.88C5064.03 269.57 5077.41 271.31 5090.54 273.3C5115.16 277.04 5145.42 287.97 5149.73 318.83C5152.31 337.27 5147.44 353.73 5135.25 367.73C5124.98 379.53 5109.59 389.36 5090.74 396.16C5074.05 402.18 5055.56 405.5 5038.69 405.5C5005.46 405.5 4977.5 396.99 4955.58 380.21C4937.85 366.64 4923.92 347.59 4914.16 323.59L4913.1 320.98L4841.21 346.93L4830.61 350.75V354.92L4830.93 355.55C4849.65 392.15 4874.05 421.15 4903.47 441.74C4939.35 466.86 4982.97 479.59 5033.1 479.59C5040.53 479.59 5048.22 479.31 5055.95 478.75C5114.21 474.56 5162.13 455.85 5198.37 423.15C5211.22 411.76 5223.3 392.69 5230.67 372.15C5236.92 354.74 5242.95 327.77 5236.15 298.14L5236.16 298.16Z" fill="black"/>
<path d="M3848.55 468.65V5.57996H3760.63V340.91L3529.8 5.57996H3525.75H3437.82V11.45V474.52H3525.75V139.19L3756.58 474.52H3760.63H3848.55V468.65Z" fill="black"/>
<path d="M1683.84 5.60999H1595.77V474.49H1683.84V326.99H1845.1C1889.47 326.99 1929.64 309.01 1958.72 279.93C1987.8 250.85 2005.78 210.68 2005.78 166.31C2005.78 77.56 1933.84 5.61999 1845.1 5.61999H1683.84V5.60999ZM1923.07 166.3C1923.07 189.06 1913.85 209.65 1898.94 224.57C1884.03 239.48 1863.42 248.7 1840.67 248.7H1683.85V83.9H1840.67C1886.18 83.9 1923.08 120.79 1923.08 166.31L1923.07 166.3Z" fill="black"/>
<path d="M2125.37 328.13H2327.31L2373.19 474.9H2461.29L2314.48 5.19995H2226.38L2299.79 240.06H2152.89L2226.3 5.19995H2138.2L1991.39 474.9H2079.49L2125.37 328.13Z" fill="black"/>
<path d="M4299.99 474.9V386.83H4007.31V284.09H4271.13V196.02H4007.31V93.27H4299.99V5.19995H4007.31H3919.24V474.9H4007.31H4299.99Z" fill="black"/>
<path d="M4690.47 320.68V474.9H4778.54V240.05H4733.01C4757.03 215.11 4771.8 181.22 4771.8 143.86C4771.8 67.28 4709.72 5.19995 4633.14 5.19995H4368.16V474.9H4456.23V320.68H4690.47ZM4565.39 85.83V85.85H4613.86C4656.56 85.85 4691.16 120.15 4691.16 162.84C4691.16 184.19 4682.51 203.52 4668.52 217.51C4655.35 230.68 4637.44 239.12 4617.57 240.06H4456.21V85.83H4565.38H4565.39Z" fill="black"/>
<path d="M2840.15 318.58V474.9H2928.22V240.05H2882.69C2906.71 215.11 2921.48 181.22 2921.48 143.86C2921.48 67.28 2859.4 5.19995 2782.82 5.19995H2517.84V474.9H2605.91V318.58H2840.15ZM2715.07 85.83V85.85H2763.54C2806.24 85.85 2840.84 119.53 2840.84 161.47C2840.84 182.44 2832.19 201.42 2818.2 215.16C2805.03 228.1 2787.12 236.38 2767.25 237.3H2605.89V85.83H2715.06H2715.07Z" fill="black"/>
<path d="M2972.31 93.27H3133.32V474.9H3221.39V93.27H3382.41V5.20996H2972.31V93.27Z" fill="black"/>
<path d="M234.59 5.59998L307.88 240.06H161.23L234.51 5.59998H146.56L0 474.5H87.95L133.75 327.98H335.36L381.15 474.5H469.1L322.55 5.59998H234.59Z" fill="black"/>
<path d="M1126.03 299.36H1389.41V211.44H1126.03V93.8H1038.11V474.47H1126.03V299.36Z" fill="black"/>
<path d="M1418.22 5.64001H1126.03V93.56H1418.22V5.64001Z" fill="black"/>
<path d="M596.54 83.47H508.76V397.15H596.54V83.47Z" fill="black"/>
<path d="M891.93 233.12V247.49C891.93 330.15 824.93 397.15 742.28 397.15H596.54V479.6H743.99C871.38 479.6 974.65 376.34 974.65 248.94V231.15C974.65 103.77 871.38 0.5 743.99 0.5H596.54V83.47H742.28C824.94 83.47 891.93 150.47 891.93 233.12Z" fill="black"/>
</g>
<defs>
<clipPath id="clip0_3823_134750">
<rect width="5376.2" height="479.9" fill="white"/>
</clipPath>
</defs>
</svg>
