<?xml version="1.0" encoding="utf-8"?>
<!-- Generator: Adobe Illustrator 27.5.0, SVG Export Plug-In . SVG Version: 6.00 Build 0)  -->
<svg version="1.1" id="Layer_1" xmlns="http://www.w3.org/2000/svg" xmlns:xlink="http://www.w3.org/1999/xlink" x="0px" y="0px"
	 viewBox="0 0 700 700" style="enable-background:new 0 0 700 700;" xml:space="preserve">
<style type="text/css">
	.st0{fill:#1A1B1E;}
</style>
<g>
	<path class="st0" d="M349.6,388.2v-13.5h-41.8v-17.7h39.6v-13.5h-39.6v-17.7h41.8v-13.5h-41.8h-12.4v13.5v17.7v13.5v17.7v13.5h12.4
		H349.6z"/>
	<path class="st0" d="M481.7,312h-12.4v76h12.4V312z"/>
	<path class="st0" d="M394.4,343.2h-33.9v13.5h33.9V343.2z"/>
	<path class="st0" d="M456.7,343.4v13.5h-39V388h-12.4v-62.5h12.4v17.8H456.7z"/>
	<path class="st0" d="M459.6,312h-41.9v13.5h41.9V312z"/>
	<path class="st0" d="M283.5,335.1c-5-15.3-18-24.1-35.8-24.1h-17v12.9h19.5c10.1,0,18,5.8,21.2,15.5c1.1,3.2,1.7,6.7,1.7,10.5
		s-0.5,7.1-1.6,10.5c-3.2,9.8-11.1,15.7-21.3,15.7h-19.5v13h17c17.8,0,30.8-8.8,35.8-24c1.5-4.7,2.2-9.7,2.2-15
		C285.7,344.7,285,339.8,283.5,335.1z"/>
	<path class="st0" d="M230.7,323.9h-12.4v52.2h12.4V323.9z"/>
</g>
</svg>
